<mxfile host="65bd71144e">
    <diagram id="RUFBgrY3cCjglKlAg6JA" name="system flow">
        <mxGraphModel dx="2637" dy="778" grid="1" gridSize="10" guides="1" tooltips="1" connect="1" arrows="1" fold="1" page="1" pageScale="1" pageWidth="850" pageHeight="1100" background="none" math="0" shadow="0">
            <root>
                <mxCell id="0"/>
                <mxCell id="1" parent="0"/>
                <mxCell id="2" value="FARMER" style="rounded=0;whiteSpace=wrap;html=1;" parent="1" vertex="1">
                    <mxGeometry x="70" y="80" width="120" height="60" as="geometry"/>
                </mxCell>
                <mxCell id="3" value="CUSTOMER" style="rounded=0;whiteSpace=wrap;html=1;" parent="1" vertex="1">
                    <mxGeometry x="640" y="80" width="120" height="60" as="geometry"/>
                </mxCell>
                <mxCell id="6" value="Can" style="rhombus;whiteSpace=wrap;html=1;" parent="1" vertex="1">
                    <mxGeometry x="90" y="200" width="80" height="80" as="geometry"/>
                </mxCell>
                <mxCell id="7" value="Can" style="rhombus;whiteSpace=wrap;html=1;" parent="1" vertex="1">
                    <mxGeometry x="660" y="200" width="80" height="80" as="geometry"/>
                </mxCell>
                <mxCell id="18" style="edgeStyle=none;html=1;entryX=0;entryY=0.5;entryDx=0;entryDy=0;" parent="1" source="9" target="16" edge="1">
                    <mxGeometry relative="1" as="geometry"/>
                </mxCell>
                <mxCell id="9" value="Register OR Create A/C" style="rounded=0;whiteSpace=wrap;html=1;" parent="1" vertex="1">
                    <mxGeometry x="70" y="330" width="120" height="60" as="geometry"/>
                </mxCell>
                <mxCell id="19" style="edgeStyle=none;html=1;" parent="1" source="13" edge="1">
                    <mxGeometry relative="1" as="geometry">
                        <mxPoint x="590" y="360" as="targetPoint"/>
                    </mxGeometry>
                </mxCell>
                <mxCell id="13" value="Register OR Create A/c" style="rounded=0;whiteSpace=wrap;html=1;" parent="1" vertex="1">
                    <mxGeometry x="640" y="330" width="120" height="60" as="geometry"/>
                </mxCell>
                <mxCell id="14" value="details" style="swimlane;fontStyle=0;childLayout=stackLayout;horizontal=1;startSize=30;horizontalStack=0;resizeParent=1;resizeParentMax=0;resizeLast=0;collapsible=1;marginBottom=0;whiteSpace=wrap;html=1;" parent="1" vertex="1">
                    <mxGeometry x="240" y="300" width="140" height="190" as="geometry"/>
                </mxCell>
                <mxCell id="15" value="name" style="text;strokeColor=none;fillColor=none;align=left;verticalAlign=middle;spacingLeft=4;spacingRight=4;overflow=hidden;points=[[0,0.5],[1,0.5]];portConstraint=eastwest;rotatable=0;whiteSpace=wrap;html=1;" parent="14" vertex="1">
                    <mxGeometry y="30" width="140" height="20" as="geometry"/>
                </mxCell>
                <mxCell id="16" value="contact" style="text;strokeColor=none;fillColor=none;align=left;verticalAlign=middle;spacingLeft=4;spacingRight=4;overflow=hidden;points=[[0,0.5],[1,0.5]];portConstraint=eastwest;rotatable=0;whiteSpace=wrap;html=1;" parent="14" vertex="1">
                    <mxGeometry y="50" width="140" height="20" as="geometry"/>
                </mxCell>
                <mxCell id="17" value="username" style="text;strokeColor=none;fillColor=none;align=left;verticalAlign=middle;spacingLeft=4;spacingRight=4;overflow=hidden;points=[[0,0.5],[1,0.5]];portConstraint=eastwest;rotatable=0;whiteSpace=wrap;html=1;" parent="14" vertex="1">
                    <mxGeometry y="70" width="140" height="20" as="geometry"/>
                </mxCell>
                <mxCell id="28" value="farmer card" style="text;strokeColor=none;fillColor=none;align=left;verticalAlign=middle;spacingLeft=4;spacingRight=4;overflow=hidden;points=[[0,0.5],[1,0.5]];portConstraint=eastwest;rotatable=0;whiteSpace=wrap;html=1;" parent="14" vertex="1">
                    <mxGeometry y="90" width="140" height="20" as="geometry"/>
                </mxCell>
                <mxCell id="29" value="address" style="text;strokeColor=none;fillColor=none;align=left;verticalAlign=middle;spacingLeft=4;spacingRight=4;overflow=hidden;points=[[0,0.5],[1,0.5]];portConstraint=eastwest;rotatable=0;whiteSpace=wrap;html=1;" parent="14" vertex="1">
                    <mxGeometry y="110" width="140" height="20" as="geometry"/>
                </mxCell>
                <mxCell id="30" value="email (optional)" style="text;strokeColor=none;fillColor=none;align=left;verticalAlign=middle;spacingLeft=4;spacingRight=4;overflow=hidden;points=[[0,0.5],[1,0.5]];portConstraint=eastwest;rotatable=0;whiteSpace=wrap;html=1;" parent="14" vertex="1">
                    <mxGeometry y="130" width="140" height="20" as="geometry"/>
                </mxCell>
                <mxCell id="31" value="password" style="text;strokeColor=none;fillColor=none;align=left;verticalAlign=middle;spacingLeft=4;spacingRight=4;overflow=hidden;points=[[0,0.5],[1,0.5]];portConstraint=eastwest;rotatable=0;whiteSpace=wrap;html=1;" parent="14" vertex="1">
                    <mxGeometry y="150" width="140" height="20" as="geometry"/>
                </mxCell>
                <mxCell id="32" value="video/ call verification" style="text;strokeColor=none;fillColor=none;align=left;verticalAlign=middle;spacingLeft=4;spacingRight=4;overflow=hidden;points=[[0,0.5],[1,0.5]];portConstraint=eastwest;rotatable=0;whiteSpace=wrap;html=1;" parent="14" vertex="1">
                    <mxGeometry y="170" width="140" height="20" as="geometry"/>
                </mxCell>
                <mxCell id="20" value="details" style="swimlane;fontStyle=0;childLayout=stackLayout;horizontal=1;startSize=30;horizontalStack=0;resizeParent=1;resizeParentMax=0;resizeLast=0;collapsible=1;marginBottom=0;whiteSpace=wrap;html=1;" parent="1" vertex="1">
                    <mxGeometry x="450" y="300" width="140" height="130" as="geometry"/>
                </mxCell>
                <mxCell id="21" value="username" style="text;strokeColor=none;fillColor=none;align=left;verticalAlign=middle;spacingLeft=4;spacingRight=4;overflow=hidden;points=[[0,0.5],[1,0.5]];portConstraint=eastwest;rotatable=0;whiteSpace=wrap;html=1;" parent="20" vertex="1">
                    <mxGeometry y="30" width="140" height="20" as="geometry"/>
                </mxCell>
                <mxCell id="22" value="password" style="text;strokeColor=none;fillColor=none;align=left;verticalAlign=middle;spacingLeft=4;spacingRight=4;overflow=hidden;points=[[0,0.5],[1,0.5]];portConstraint=eastwest;rotatable=0;whiteSpace=wrap;html=1;" parent="20" vertex="1">
                    <mxGeometry y="50" width="140" height="20" as="geometry"/>
                </mxCell>
                <mxCell id="23" value="contact" style="text;strokeColor=none;fillColor=none;align=left;verticalAlign=middle;spacingLeft=4;spacingRight=4;overflow=hidden;points=[[0,0.5],[1,0.5]];portConstraint=eastwest;rotatable=0;whiteSpace=wrap;html=1;" parent="20" vertex="1">
                    <mxGeometry y="70" width="140" height="20" as="geometry"/>
                </mxCell>
                <mxCell id="33" value="email (optional)" style="text;strokeColor=none;fillColor=none;align=left;verticalAlign=middle;spacingLeft=4;spacingRight=4;overflow=hidden;points=[[0,0.5],[1,0.5]];portConstraint=eastwest;rotatable=0;whiteSpace=wrap;html=1;" parent="20" vertex="1">
                    <mxGeometry y="90" width="140" height="20" as="geometry"/>
                </mxCell>
                <mxCell id="34" value="password" style="text;strokeColor=none;fillColor=none;align=left;verticalAlign=middle;spacingLeft=4;spacingRight=4;overflow=hidden;points=[[0,0.5],[1,0.5]];portConstraint=eastwest;rotatable=0;whiteSpace=wrap;html=1;" parent="20" vertex="1">
                    <mxGeometry y="110" width="140" height="20" as="geometry"/>
                </mxCell>
                <mxCell id="36" value="can" style="rhombus;whiteSpace=wrap;html=1;" parent="1" vertex="1">
                    <mxGeometry x="-140" y="70" width="80" height="80" as="geometry"/>
                </mxCell>
                <mxCell id="38" value="can" style="rhombus;whiteSpace=wrap;html=1;" parent="1" vertex="1">
                    <mxGeometry x="930" y="70" width="80" height="80" as="geometry"/>
                </mxCell>
                <mxCell id="85" style="edgeStyle=none;html=1;exitX=0;exitY=0.25;exitDx=0;exitDy=0;entryX=1;entryY=0.5;entryDx=0;entryDy=0;" parent="1" source="39" target="43" edge="1">
                    <mxGeometry relative="1" as="geometry"/>
                </mxCell>
                <mxCell id="86" style="edgeStyle=none;html=1;exitX=0;exitY=0.75;exitDx=0;exitDy=0;entryX=1;entryY=0.5;entryDx=0;entryDy=0;" parent="1" source="39" target="44" edge="1">
                    <mxGeometry relative="1" as="geometry"/>
                </mxCell>
                <mxCell id="39" value="Login" style="rounded=0;whiteSpace=wrap;html=1;" parent="1" vertex="1">
                    <mxGeometry x="-400" y="80" width="120" height="60" as="geometry"/>
                </mxCell>
                <mxCell id="99" style="edgeStyle=none;html=1;exitX=1;exitY=0.25;exitDx=0;exitDy=0;entryX=0;entryY=0.5;entryDx=0;entryDy=0;" parent="1" source="42" target="46" edge="1">
                    <mxGeometry relative="1" as="geometry"/>
                </mxCell>
                <mxCell id="100" style="edgeStyle=none;html=1;exitX=1;exitY=0.75;exitDx=0;exitDy=0;entryX=0;entryY=0.5;entryDx=0;entryDy=0;" parent="1" source="42" target="47" edge="1">
                    <mxGeometry relative="1" as="geometry"/>
                </mxCell>
                <mxCell id="42" value="Login" style="rounded=0;whiteSpace=wrap;html=1;" parent="1" vertex="1">
                    <mxGeometry x="1120" y="80" width="120" height="60" as="geometry"/>
                </mxCell>
                <mxCell id="43" value="Username OR Email" style="ellipse;whiteSpace=wrap;html=1;" parent="1" vertex="1">
                    <mxGeometry x="-550" y="20" width="90" height="80" as="geometry"/>
                </mxCell>
                <mxCell id="44" value="Password" style="ellipse;whiteSpace=wrap;html=1;" parent="1" vertex="1">
                    <mxGeometry x="-550" y="120" width="90" height="80" as="geometry"/>
                </mxCell>
                <mxCell id="46" value="Username OR Email" style="ellipse;whiteSpace=wrap;html=1;" parent="1" vertex="1">
                    <mxGeometry x="1340" y="30" width="90" height="80" as="geometry"/>
                </mxCell>
                <mxCell id="47" value="Password" style="ellipse;whiteSpace=wrap;html=1;" parent="1" vertex="1">
                    <mxGeometry x="1340" y="130" width="90" height="80" as="geometry"/>
                </mxCell>
                <mxCell id="57" value="Redirect" style="rhombus;whiteSpace=wrap;html=1;" parent="1" vertex="1">
                    <mxGeometry x="-230" y="320" width="80" height="80" as="geometry"/>
                </mxCell>
                <mxCell id="58" value="Redirect" style="rhombus;whiteSpace=wrap;html=1;" parent="1" vertex="1">
                    <mxGeometry x="980" y="320" width="80" height="80" as="geometry"/>
                </mxCell>
                <mxCell id="59" value="Home" style="rounded=0;whiteSpace=wrap;html=1;" parent="1" vertex="1">
                    <mxGeometry x="-450" y="330" width="120" height="60" as="geometry"/>
                </mxCell>
                <mxCell id="62" value="Home" style="rounded=0;whiteSpace=wrap;html=1;" parent="1" vertex="1">
                    <mxGeometry x="1160" y="330" width="120" height="60" as="geometry"/>
                </mxCell>
                <mxCell id="64" value="Have" style="rhombus;whiteSpace=wrap;html=1;" parent="1" vertex="1">
                    <mxGeometry x="-430" y="500" width="80" height="80" as="geometry"/>
                </mxCell>
                <mxCell id="66" value="Have" style="rhombus;whiteSpace=wrap;html=1;" parent="1" vertex="1">
                    <mxGeometry x="1180" y="480" width="80" height="80" as="geometry"/>
                </mxCell>
                <mxCell id="70" value="Insides" style="rounded=0;whiteSpace=wrap;html=1;" parent="1" vertex="1">
                    <mxGeometry x="-650" y="650" width="120" height="40" as="geometry"/>
                </mxCell>
                <mxCell id="71" value="Message" style="rounded=0;whiteSpace=wrap;html=1;" parent="1" vertex="1">
                    <mxGeometry x="-240" y="650" width="120" height="40" as="geometry"/>
                </mxCell>
                <mxCell id="72" value="Stocks" style="rounded=0;whiteSpace=wrap;html=1;" parent="1" vertex="1">
                    <mxGeometry x="-510" y="650" width="120" height="40" as="geometry"/>
                </mxCell>
                <mxCell id="73" value="Profile" style="rounded=0;whiteSpace=wrap;html=1;" parent="1" vertex="1">
                    <mxGeometry x="-380" y="650" width="120" height="40" as="geometry"/>
                </mxCell>
                <mxCell id="74" value="Explore" style="rounded=0;whiteSpace=wrap;html=1;" parent="1" vertex="1">
                    <mxGeometry x="1230" y="650" width="120" height="40" as="geometry"/>
                </mxCell>
                <mxCell id="144" style="edgeStyle=none;html=1;" parent="1" source="75" edge="1">
                    <mxGeometry relative="1" as="geometry">
                        <mxPoint x="1560" y="670" as="targetPoint"/>
                    </mxGeometry>
                </mxCell>
                <mxCell id="75" value="search" style="rounded=0;whiteSpace=wrap;html=1;" parent="1" vertex="1">
                    <mxGeometry x="1370" y="650" width="120" height="40" as="geometry"/>
                </mxCell>
                <mxCell id="76" value="Message" style="rounded=0;whiteSpace=wrap;html=1;" parent="1" vertex="1">
                    <mxGeometry x="950" y="650" width="120" height="40" as="geometry"/>
                </mxCell>
                <mxCell id="78" value="Profile" style="rounded=0;whiteSpace=wrap;html=1;" parent="1" vertex="1">
                    <mxGeometry x="1090" y="650" width="120" height="40" as="geometry"/>
                </mxCell>
                <mxCell id="89" value="" style="endArrow=none;html=1;exitX=0.5;exitY=0;exitDx=0;exitDy=0;" parent="1" source="57" edge="1">
                    <mxGeometry width="50" height="50" relative="1" as="geometry">
                        <mxPoint x="-390" y="190" as="sourcePoint"/>
                        <mxPoint x="-340" y="140" as="targetPoint"/>
                    </mxGeometry>
                </mxCell>
                <mxCell id="90" value="" style="endArrow=none;html=1;exitX=1;exitY=0.5;exitDx=0;exitDy=0;" parent="1" source="57" edge="1">
                    <mxGeometry width="50" height="50" relative="1" as="geometry">
                        <mxPoint x="20" y="410" as="sourcePoint"/>
                        <mxPoint x="70" y="360" as="targetPoint"/>
                    </mxGeometry>
                </mxCell>
                <mxCell id="91" value="" style="endArrow=none;html=1;entryX=0;entryY=0.5;entryDx=0;entryDy=0;" parent="1" source="59" target="57" edge="1">
                    <mxGeometry width="50" height="50" relative="1" as="geometry">
                        <mxPoint x="-370" y="410" as="sourcePoint"/>
                        <mxPoint x="-320" y="360" as="targetPoint"/>
                    </mxGeometry>
                </mxCell>
                <mxCell id="92" value="" style="endArrow=none;html=1;exitX=1;exitY=0.5;exitDx=0;exitDy=0;" parent="1" source="39" edge="1">
                    <mxGeometry width="50" height="50" relative="1" as="geometry">
                        <mxPoint x="-190" y="160" as="sourcePoint"/>
                        <mxPoint x="-140" y="110" as="targetPoint"/>
                    </mxGeometry>
                </mxCell>
                <mxCell id="93" value="" style="endArrow=none;html=1;exitX=1;exitY=0.5;exitDx=0;exitDy=0;" parent="1" source="36" edge="1">
                    <mxGeometry width="50" height="50" relative="1" as="geometry">
                        <mxPoint x="20" y="160" as="sourcePoint"/>
                        <mxPoint x="70" y="110" as="targetPoint"/>
                    </mxGeometry>
                </mxCell>
                <mxCell id="94" value="" style="endArrow=none;html=1;entryX=0.5;entryY=1;entryDx=0;entryDy=0;" parent="1" source="64" target="59" edge="1">
                    <mxGeometry width="50" height="50" relative="1" as="geometry">
                        <mxPoint x="-510" y="440" as="sourcePoint"/>
                        <mxPoint x="-390" y="400" as="targetPoint"/>
                    </mxGeometry>
                </mxCell>
                <mxCell id="95" value="" style="endArrow=none;html=1;" parent="1" source="6" edge="1">
                    <mxGeometry width="50" height="50" relative="1" as="geometry">
                        <mxPoint x="80" y="190" as="sourcePoint"/>
                        <mxPoint x="130" y="140" as="targetPoint"/>
                    </mxGeometry>
                </mxCell>
                <mxCell id="96" value="" style="endArrow=none;html=1;exitX=0.5;exitY=0;exitDx=0;exitDy=0;" parent="1" source="9" edge="1">
                    <mxGeometry width="50" height="50" relative="1" as="geometry">
                        <mxPoint x="80" y="330" as="sourcePoint"/>
                        <mxPoint x="130" y="280" as="targetPoint"/>
                    </mxGeometry>
                </mxCell>
                <mxCell id="97" value="" style="endArrow=none;html=1;entryX=0;entryY=0.5;entryDx=0;entryDy=0;" parent="1" target="38" edge="1">
                    <mxGeometry width="50" height="50" relative="1" as="geometry">
                        <mxPoint x="760" y="110" as="sourcePoint"/>
                        <mxPoint x="810" y="60" as="targetPoint"/>
                    </mxGeometry>
                </mxCell>
                <mxCell id="98" value="" style="endArrow=none;html=1;entryX=0;entryY=0.5;entryDx=0;entryDy=0;" parent="1" target="42" edge="1">
                    <mxGeometry width="50" height="50" relative="1" as="geometry">
                        <mxPoint x="1010" y="110" as="sourcePoint"/>
                        <mxPoint x="1060" y="60" as="targetPoint"/>
                    </mxGeometry>
                </mxCell>
                <mxCell id="101" value="" style="endArrow=none;html=1;exitX=0.5;exitY=0;exitDx=0;exitDy=0;" parent="1" source="58" edge="1">
                    <mxGeometry width="50" height="50" relative="1" as="geometry">
                        <mxPoint x="1130" y="190" as="sourcePoint"/>
                        <mxPoint x="1180" y="140" as="targetPoint"/>
                    </mxGeometry>
                </mxCell>
                <mxCell id="102" value="" style="endArrow=none;html=1;exitX=0.5;exitY=0;exitDx=0;exitDy=0;" parent="1" source="7" edge="1">
                    <mxGeometry width="50" height="50" relative="1" as="geometry">
                        <mxPoint x="650" y="190" as="sourcePoint"/>
                        <mxPoint x="700" y="140" as="targetPoint"/>
                    </mxGeometry>
                </mxCell>
                <mxCell id="103" value="" style="endArrow=none;html=1;exitX=0.5;exitY=0;exitDx=0;exitDy=0;" parent="1" source="13" edge="1">
                    <mxGeometry width="50" height="50" relative="1" as="geometry">
                        <mxPoint x="650" y="330" as="sourcePoint"/>
                        <mxPoint x="700" y="280" as="targetPoint"/>
                    </mxGeometry>
                </mxCell>
                <mxCell id="104" value="" style="endArrow=none;html=1;entryX=0;entryY=0.5;entryDx=0;entryDy=0;" parent="1" target="58" edge="1">
                    <mxGeometry width="50" height="50" relative="1" as="geometry">
                        <mxPoint x="760" y="360" as="sourcePoint"/>
                        <mxPoint x="810" y="310" as="targetPoint"/>
                    </mxGeometry>
                </mxCell>
                <mxCell id="105" value="" style="endArrow=none;html=1;exitX=1;exitY=0.5;exitDx=0;exitDy=0;entryX=0;entryY=0.5;entryDx=0;entryDy=0;" parent="1" source="58" target="62" edge="1">
                    <mxGeometry width="50" height="50" relative="1" as="geometry">
                        <mxPoint x="1080" y="370" as="sourcePoint"/>
                        <mxPoint x="1150" y="370" as="targetPoint"/>
                    </mxGeometry>
                </mxCell>
                <mxCell id="107" value="" style="endArrow=none;html=1;exitX=0.5;exitY=0;exitDx=0;exitDy=0;entryX=0;entryY=0.5;entryDx=0;entryDy=0;" parent="1" source="70" target="64" edge="1">
                    <mxGeometry width="50" height="50" relative="1" as="geometry">
                        <mxPoint x="-460" y="610" as="sourcePoint"/>
                        <mxPoint x="-410" y="560" as="targetPoint"/>
                    </mxGeometry>
                </mxCell>
                <mxCell id="108" value="" style="endArrow=none;html=1;exitX=0.5;exitY=0;exitDx=0;exitDy=0;" parent="1" source="72" edge="1">
                    <mxGeometry width="50" height="50" relative="1" as="geometry">
                        <mxPoint x="-440" y="630" as="sourcePoint"/>
                        <mxPoint x="-390" y="580" as="targetPoint"/>
                    </mxGeometry>
                </mxCell>
                <mxCell id="109" value="" style="endArrow=none;html=1;exitX=0.5;exitY=1;exitDx=0;exitDy=0;entryX=0.466;entryY=-0.071;entryDx=0;entryDy=0;entryPerimeter=0;" parent="1" source="64" target="73" edge="1">
                    <mxGeometry width="50" height="50" relative="1" as="geometry">
                        <mxPoint x="-340" y="580" as="sourcePoint"/>
                        <mxPoint x="-290" y="530" as="targetPoint"/>
                    </mxGeometry>
                </mxCell>
                <mxCell id="110" value="" style="endArrow=none;html=1;entryX=0.5;entryY=0;entryDx=0;entryDy=0;" parent="1" target="71" edge="1">
                    <mxGeometry width="50" height="50" relative="1" as="geometry">
                        <mxPoint x="-350" y="540" as="sourcePoint"/>
                        <mxPoint x="-300" y="490" as="targetPoint"/>
                    </mxGeometry>
                </mxCell>
                <mxCell id="111" value="" style="endArrow=none;html=1;exitX=0.5;exitY=0;exitDx=0;exitDy=0;entryX=0;entryY=0.5;entryDx=0;entryDy=0;" parent="1" source="76" target="66" edge="1">
                    <mxGeometry width="50" height="50" relative="1" as="geometry">
                        <mxPoint x="1130" y="590" as="sourcePoint"/>
                        <mxPoint x="1180" y="540" as="targetPoint"/>
                    </mxGeometry>
                </mxCell>
                <mxCell id="112" value="" style="endArrow=none;html=1;exitX=0.5;exitY=0;exitDx=0;exitDy=0;entryX=0.5;entryY=1;entryDx=0;entryDy=0;" parent="1" source="78" target="66" edge="1">
                    <mxGeometry width="50" height="50" relative="1" as="geometry">
                        <mxPoint x="1150" y="610" as="sourcePoint"/>
                        <mxPoint x="1220" y="580" as="targetPoint"/>
                    </mxGeometry>
                </mxCell>
                <mxCell id="113" value="" style="endArrow=none;html=1;entryX=0.5;entryY=1;entryDx=0;entryDy=0;" parent="1" source="74" target="66" edge="1">
                    <mxGeometry width="50" height="50" relative="1" as="geometry">
                        <mxPoint x="1170" y="630" as="sourcePoint"/>
                        <mxPoint x="1220" y="580" as="targetPoint"/>
                    </mxGeometry>
                </mxCell>
                <mxCell id="114" value="" style="endArrow=none;html=1;entryX=0.5;entryY=0;entryDx=0;entryDy=0;exitX=1;exitY=0.5;exitDx=0;exitDy=0;" parent="1" source="66" target="75" edge="1">
                    <mxGeometry width="50" height="50" relative="1" as="geometry">
                        <mxPoint x="1240" y="590" as="sourcePoint"/>
                        <mxPoint x="1290" y="540" as="targetPoint"/>
                    </mxGeometry>
                </mxCell>
                <mxCell id="116" value="" style="endArrow=none;html=1;exitX=0.5;exitY=0;exitDx=0;exitDy=0;exitPerimeter=0;entryX=0.5;entryY=1;entryDx=0;entryDy=0;" parent="1" source="118" target="73" edge="1">
                    <mxGeometry width="50" height="50" relative="1" as="geometry">
                        <mxPoint x="-260" y="740" as="sourcePoint"/>
                        <mxPoint x="-260" y="690" as="targetPoint"/>
                    </mxGeometry>
                </mxCell>
                <mxCell id="159" style="edgeStyle=none;html=1;exitX=1;exitY=0;exitDx=0;exitDy=0;entryX=0;entryY=0.5;entryDx=0;entryDy=0;" parent="1" source="118" target="121" edge="1">
                    <mxGeometry relative="1" as="geometry"/>
                </mxCell>
                <mxCell id="160" style="edgeStyle=none;html=1;exitX=1;exitY=0.5;exitDx=0;exitDy=0;entryX=0;entryY=0.5;entryDx=0;entryDy=0;" parent="1" source="118" target="120" edge="1">
                    <mxGeometry relative="1" as="geometry"/>
                </mxCell>
                <mxCell id="161" style="edgeStyle=none;html=1;exitX=1;exitY=0.5;exitDx=0;exitDy=0;entryX=0;entryY=0.5;entryDx=0;entryDy=0;" parent="1" source="118" target="119" edge="1">
                    <mxGeometry relative="1" as="geometry"/>
                </mxCell>
                <mxCell id="162" style="edgeStyle=none;html=1;exitX=1;exitY=1;exitDx=0;exitDy=0;entryX=0;entryY=0.5;entryDx=0;entryDy=0;" parent="1" source="118" target="122" edge="1">
                    <mxGeometry relative="1" as="geometry"/>
                </mxCell>
                <mxCell id="118" value="Update" style="rhombus;whiteSpace=wrap;html=1;" parent="1" vertex="1">
                    <mxGeometry x="-360" y="780" width="80" height="80" as="geometry"/>
                </mxCell>
                <mxCell id="119" value="Email" style="ellipse;whiteSpace=wrap;html=1;" parent="1" vertex="1">
                    <mxGeometry x="-220" y="830" width="60" height="40" as="geometry"/>
                </mxCell>
                <mxCell id="120" value="Contact" style="ellipse;whiteSpace=wrap;html=1;" parent="1" vertex="1">
                    <mxGeometry x="-220" y="780" width="60" height="40" as="geometry"/>
                </mxCell>
                <mxCell id="121" value="Password" style="ellipse;whiteSpace=wrap;html=1;" parent="1" vertex="1">
                    <mxGeometry x="-220" y="730" width="60" height="40" as="geometry"/>
                </mxCell>
                <mxCell id="122" value="Name" style="ellipse;whiteSpace=wrap;html=1;" parent="1" vertex="1">
                    <mxGeometry x="-220" y="880" width="60" height="40" as="geometry"/>
                </mxCell>
                <mxCell id="137" style="edgeStyle=none;html=1;exitX=0;exitY=1;exitDx=0;exitDy=0;entryX=0.417;entryY=0;entryDx=0;entryDy=0;entryPerimeter=0;" parent="1" source="127" target="132" edge="1">
                    <mxGeometry relative="1" as="geometry"/>
                </mxCell>
                <mxCell id="138" style="edgeStyle=none;html=1;exitX=0.5;exitY=1;exitDx=0;exitDy=0;entryX=0.583;entryY=0;entryDx=0;entryDy=0;entryPerimeter=0;" parent="1" source="127" target="129" edge="1">
                    <mxGeometry relative="1" as="geometry"/>
                </mxCell>
                <mxCell id="139" style="edgeStyle=none;html=1;exitX=0.5;exitY=1;exitDx=0;exitDy=0;entryX=0.417;entryY=0;entryDx=0;entryDy=0;entryPerimeter=0;" parent="1" source="127" target="130" edge="1">
                    <mxGeometry relative="1" as="geometry">
                        <mxPoint x="1150.1111111111113" y="880" as="targetPoint"/>
                    </mxGeometry>
                </mxCell>
                <mxCell id="140" style="edgeStyle=none;html=1;exitX=1;exitY=1;exitDx=0;exitDy=0;entryX=0.619;entryY=0.044;entryDx=0;entryDy=0;entryPerimeter=0;" parent="1" source="127" target="131" edge="1">
                    <mxGeometry relative="1" as="geometry"/>
                </mxCell>
                <mxCell id="127" value="Update" style="rhombus;whiteSpace=wrap;html=1;" parent="1" vertex="1">
                    <mxGeometry x="1110" y="790" width="80" height="80" as="geometry"/>
                </mxCell>
                <mxCell id="128" value="" style="endArrow=none;html=1;entryX=0.5;entryY=1;entryDx=0;entryDy=0;" parent="1" source="127" target="78" edge="1">
                    <mxGeometry width="50" height="50" relative="1" as="geometry">
                        <mxPoint x="1100" y="750" as="sourcePoint"/>
                        <mxPoint x="1150" y="700" as="targetPoint"/>
                    </mxGeometry>
                </mxCell>
                <mxCell id="129" value="Email" style="ellipse;whiteSpace=wrap;html=1;" parent="1" vertex="1">
                    <mxGeometry x="1085" y="920" width="60" height="40" as="geometry"/>
                </mxCell>
                <mxCell id="130" value="Contact" style="ellipse;whiteSpace=wrap;html=1;" parent="1" vertex="1">
                    <mxGeometry x="1155" y="920" width="60" height="40" as="geometry"/>
                </mxCell>
                <mxCell id="131" value="Password" style="ellipse;whiteSpace=wrap;html=1;" parent="1" vertex="1">
                    <mxGeometry x="1225" y="920" width="60" height="40" as="geometry"/>
                </mxCell>
                <mxCell id="132" value="Name" style="ellipse;whiteSpace=wrap;html=1;" parent="1" vertex="1">
                    <mxGeometry x="1015" y="920" width="60" height="40" as="geometry"/>
                </mxCell>
                <mxCell id="146" value="food name / Farmer Name" style="ellipse;whiteSpace=wrap;html=1;aspect=fixed;" parent="1" vertex="1">
                    <mxGeometry x="1560" y="630" width="80" height="80" as="geometry"/>
                </mxCell>
                <mxCell id="149" value="Send" style="rhombus;whiteSpace=wrap;html=1;" parent="1" vertex="1">
                    <mxGeometry x="385" y="630" width="80" height="80" as="geometry"/>
                </mxCell>
                <mxCell id="151" value="" style="endArrow=none;html=1;exitX=1;exitY=0.5;exitDx=0;exitDy=0;entryX=0;entryY=0.5;entryDx=0;entryDy=0;" parent="1" source="149" target="76" edge="1">
                    <mxGeometry width="50" height="50" relative="1" as="geometry">
                        <mxPoint x="900" y="730" as="sourcePoint"/>
                        <mxPoint x="950" y="680" as="targetPoint"/>
                    </mxGeometry>
                </mxCell>
                <mxCell id="152" value="" style="endArrow=none;html=1;exitX=1;exitY=0.5;exitDx=0;exitDy=0;entryX=0;entryY=0.5;entryDx=0;entryDy=0;" parent="1" source="71" target="149" edge="1">
                    <mxGeometry width="50" height="50" relative="1" as="geometry">
                        <mxPoint x="335" y="730" as="sourcePoint"/>
                        <mxPoint x="380" y="670" as="targetPoint"/>
                    </mxGeometry>
                </mxCell>
                <mxCell id="153" value="" style="endArrow=none;html=1;" parent="1" edge="1">
                    <mxGeometry width="50" height="50" relative="1" as="geometry">
                        <mxPoint x="1220" y="480" as="sourcePoint"/>
                        <mxPoint x="1220" y="390" as="targetPoint"/>
                    </mxGeometry>
                </mxCell>
                <mxCell id="154" value="Check" style="rhombus;whiteSpace=wrap;html=1;" parent="1" vertex="1">
                    <mxGeometry x="1250" y="760" width="80" height="80" as="geometry"/>
                </mxCell>
                <mxCell id="155" value="" style="endArrow=none;html=1;" parent="1" source="154" edge="1">
                    <mxGeometry width="50" height="50" relative="1" as="geometry">
                        <mxPoint x="1240" y="740" as="sourcePoint"/>
                        <mxPoint x="1290" y="690" as="targetPoint"/>
                    </mxGeometry>
                </mxCell>
                <mxCell id="156" value="" style="endArrow=none;html=1;exitX=1;exitY=0.5;exitDx=0;exitDy=0;" parent="1" source="154" edge="1">
                    <mxGeometry width="50" height="50" relative="1" as="geometry">
                        <mxPoint x="1380" y="810" as="sourcePoint"/>
                        <mxPoint x="1400" y="800" as="targetPoint"/>
                    </mxGeometry>
                </mxCell>
                <mxCell id="157" value="Farmer Profiles" style="rounded=0;whiteSpace=wrap;html=1;" parent="1" vertex="1">
                    <mxGeometry x="1400" y="780" width="120" height="40" as="geometry"/>
                </mxCell>
                <mxCell id="164" value="can" style="rhombus;whiteSpace=wrap;html=1;" parent="1" vertex="1">
                    <mxGeometry x="-490" y="817.5" width="80" height="80" as="geometry"/>
                </mxCell>
                <mxCell id="165" value="" style="endArrow=none;html=1;entryX=0.5;entryY=1;entryDx=0;entryDy=0;exitX=0.5;exitY=0;exitDx=0;exitDy=0;" parent="1" source="164" target="72" edge="1">
                    <mxGeometry width="50" height="50" relative="1" as="geometry">
                        <mxPoint x="-440" y="740" as="sourcePoint"/>
                        <mxPoint x="-390" y="690" as="targetPoint"/>
                    </mxGeometry>
                </mxCell>
                <mxCell id="168" value="Add" style="rounded=0;whiteSpace=wrap;html=1;" parent="1" vertex="1">
                    <mxGeometry x="-580" y="930" width="120" height="40" as="geometry"/>
                </mxCell>
                <mxCell id="169" value="Remove" style="rounded=0;whiteSpace=wrap;html=1;" parent="1" vertex="1">
                    <mxGeometry x="-440" y="930" width="120" height="40" as="geometry"/>
                </mxCell>
                <mxCell id="171" value="" style="endArrow=none;html=1;exitX=0.5;exitY=0;exitDx=0;exitDy=0;entryX=0;entryY=1;entryDx=0;entryDy=0;" parent="1" source="168" target="164" edge="1">
                    <mxGeometry width="50" height="50" relative="1" as="geometry">
                        <mxPoint x="-460" y="980" as="sourcePoint"/>
                        <mxPoint x="-410" y="930" as="targetPoint"/>
                    </mxGeometry>
                </mxCell>
                <mxCell id="172" value="" style="endArrow=none;html=1;exitX=1;exitY=1;exitDx=0;exitDy=0;entryX=0.5;entryY=0;entryDx=0;entryDy=0;" parent="1" source="164" target="169" edge="1">
                    <mxGeometry width="50" height="50" relative="1" as="geometry">
                        <mxPoint x="-350" y="990" as="sourcePoint"/>
                        <mxPoint x="-300" y="940" as="targetPoint"/>
                    </mxGeometry>
                </mxCell>
                <mxCell id="173" value="" style="endArrow=none;html=1;entryX=0;entryY=1;entryDx=0;entryDy=0;exitX=0.5;exitY=0;exitDx=0;exitDy=0;" parent="1" source="174" target="168" edge="1">
                    <mxGeometry width="50" height="50" relative="1" as="geometry">
                        <mxPoint x="-600" y="1050" as="sourcePoint"/>
                        <mxPoint x="-530" y="970" as="targetPoint"/>
                    </mxGeometry>
                </mxCell>
                <mxCell id="174" value="Images" style="ellipse;whiteSpace=wrap;html=1;" parent="1" vertex="1">
                    <mxGeometry x="-670" y="1050" width="70" height="40" as="geometry"/>
                </mxCell>
                <mxCell id="175" value="" style="endArrow=none;html=1;entryX=0.5;entryY=1;entryDx=0;entryDy=0;exitX=0.5;exitY=0;exitDx=0;exitDy=0;" parent="1" source="177" target="168" edge="1">
                    <mxGeometry width="50" height="50" relative="1" as="geometry">
                        <mxPoint x="-520" y="1050" as="sourcePoint"/>
                        <mxPoint x="-500" y="990" as="targetPoint"/>
                    </mxGeometry>
                </mxCell>
                <mxCell id="177" value="Title" style="ellipse;whiteSpace=wrap;html=1;" parent="1" vertex="1">
                    <mxGeometry x="-590" y="1050" width="70" height="40" as="geometry"/>
                </mxCell>
                <mxCell id="178" value="Details" style="ellipse;whiteSpace=wrap;html=1;" parent="1" vertex="1">
                    <mxGeometry x="-510" y="1050" width="60" height="40" as="geometry"/>
                </mxCell>
                <mxCell id="179" value="" style="endArrow=none;html=1;exitX=0.5;exitY=0;exitDx=0;exitDy=0;entryX=0.5;entryY=1;entryDx=0;entryDy=0;" parent="1" source="178" target="168" edge="1">
                    <mxGeometry width="50" height="50" relative="1" as="geometry">
                        <mxPoint x="-550" y="1020" as="sourcePoint"/>
                        <mxPoint x="-500" y="970" as="targetPoint"/>
                    </mxGeometry>
                </mxCell>
                <mxCell id="180" value="Price" style="ellipse;whiteSpace=wrap;html=1;" parent="1" vertex="1">
                    <mxGeometry x="-440" y="1050" width="60" height="40" as="geometry"/>
                </mxCell>
                <mxCell id="181" value="" style="endArrow=none;html=1;exitX=0.5;exitY=0;exitDx=0;exitDy=0;" parent="1" source="180" edge="1">
                    <mxGeometry width="50" height="50" relative="1" as="geometry">
                        <mxPoint x="-510" y="1020" as="sourcePoint"/>
                        <mxPoint x="-460" y="970" as="targetPoint"/>
                    </mxGeometry>
                </mxCell>
                <mxCell id="183" value="Check" style="rhombus;whiteSpace=wrap;html=1;" parent="1" vertex="1">
                    <mxGeometry x="-630" y="760" width="80" height="80" as="geometry"/>
                </mxCell>
                <mxCell id="185" value="" style="endArrow=none;html=1;entryX=0.5;entryY=1;entryDx=0;entryDy=0;" parent="1" source="183" target="70" edge="1">
                    <mxGeometry width="50" height="50" relative="1" as="geometry">
                        <mxPoint x="-570" y="740" as="sourcePoint"/>
                        <mxPoint x="-520" y="690" as="targetPoint"/>
                    </mxGeometry>
                </mxCell>
                <mxCell id="187" value="" style="endArrow=none;html=1;exitX=1;exitY=0.5;exitDx=0;exitDy=0;" parent="1" source="188" edge="1">
                    <mxGeometry width="50" height="50" relative="1" as="geometry">
                        <mxPoint x="-660" y="800" as="sourcePoint"/>
                        <mxPoint x="-630" y="800" as="targetPoint"/>
                    </mxGeometry>
                </mxCell>
                <mxCell id="188" value="Reports" style="rounded=0;whiteSpace=wrap;html=1;" parent="1" vertex="1">
                    <mxGeometry x="-750" y="782.5" width="90" height="35" as="geometry"/>
                </mxCell>
                <mxCell id="189" value="" style="endArrow=none;html=1;entryX=0;entryY=0.5;entryDx=0;entryDy=0;exitX=1;exitY=1;exitDx=0;exitDy=0;" parent="1" source="191" target="188" edge="1">
                    <mxGeometry width="50" height="50" relative="1" as="geometry">
                        <mxPoint x="-830" y="760" as="sourcePoint"/>
                        <mxPoint x="-790" y="720" as="targetPoint"/>
                    </mxGeometry>
                </mxCell>
                <mxCell id="190" value="" style="endArrow=none;html=1;entryX=0;entryY=0.5;entryDx=0;entryDy=0;exitX=1;exitY=0;exitDx=0;exitDy=0;" parent="1" source="192" target="188" edge="1">
                    <mxGeometry width="50" height="50" relative="1" as="geometry">
                        <mxPoint x="-830" y="840" as="sourcePoint"/>
                        <mxPoint x="-770" y="800" as="targetPoint"/>
                    </mxGeometry>
                </mxCell>
                <mxCell id="191" value="Monthly" style="ellipse;whiteSpace=wrap;html=1;" parent="1" vertex="1">
                    <mxGeometry x="-840" y="740" width="60" height="40" as="geometry"/>
                </mxCell>
                <mxCell id="192" value="Yearly" style="ellipse;whiteSpace=wrap;html=1;" parent="1" vertex="1">
                    <mxGeometry x="-840" y="820" width="60" height="40" as="geometry"/>
                </mxCell>
            </root>
        </mxGraphModel>
    </diagram>
    <diagram id="6SCwuzt5sATNHBxoP5-J" name="ERD Digram">
        <mxGraphModel dx="1072" dy="467" grid="1" gridSize="10" guides="1" tooltips="1" connect="1" arrows="1" fold="1" page="1" pageScale="1" pageWidth="850" pageHeight="1100" math="0" shadow="0">
            <root>
                <mxCell id="0"/>
                <mxCell id="1" parent="0"/>
                <mxCell id="nMG1q2g8icrtDRCT-Ovj-1" style="edgeStyle=none;html=1;exitX=1;exitY=0;exitDx=0;exitDy=0;entryX=0.333;entryY=0.948;entryDx=0;entryDy=0;entryPerimeter=0;" parent="1" source="nMG1q2g8icrtDRCT-Ovj-10" target="nMG1q2g8icrtDRCT-Ovj-15" edge="1">
                    <mxGeometry relative="1" as="geometry"/>
                </mxCell>
                <mxCell id="nMG1q2g8icrtDRCT-Ovj-2" style="edgeStyle=none;html=1;exitX=0.5;exitY=0;exitDx=0;exitDy=0;entryX=0.5;entryY=1;entryDx=0;entryDy=0;" parent="1" source="nMG1q2g8icrtDRCT-Ovj-10" target="nMG1q2g8icrtDRCT-Ovj-14" edge="1">
                    <mxGeometry relative="1" as="geometry"/>
                </mxCell>
                <mxCell id="nMG1q2g8icrtDRCT-Ovj-3" style="edgeStyle=none;html=1;exitX=0.5;exitY=0;exitDx=0;exitDy=0;" parent="1" source="nMG1q2g8icrtDRCT-Ovj-10" target="nMG1q2g8icrtDRCT-Ovj-13" edge="1">
                    <mxGeometry relative="1" as="geometry"/>
                </mxCell>
                <mxCell id="nMG1q2g8icrtDRCT-Ovj-4" style="edgeStyle=none;html=1;exitX=0.5;exitY=0;exitDx=0;exitDy=0;" parent="1" source="nMG1q2g8icrtDRCT-Ovj-10" target="nMG1q2g8icrtDRCT-Ovj-12" edge="1">
                    <mxGeometry relative="1" as="geometry"/>
                </mxCell>
                <mxCell id="nMG1q2g8icrtDRCT-Ovj-5" style="edgeStyle=none;html=1;exitX=0;exitY=0;exitDx=0;exitDy=0;entryX=1;entryY=1;entryDx=0;entryDy=0;" parent="1" source="nMG1q2g8icrtDRCT-Ovj-10" target="nMG1q2g8icrtDRCT-Ovj-11" edge="1">
                    <mxGeometry relative="1" as="geometry"/>
                </mxCell>
                <mxCell id="nMG1q2g8icrtDRCT-Ovj-6" style="edgeStyle=none;html=1;exitX=0;exitY=0;exitDx=0;exitDy=0;entryX=0.973;entryY=0.585;entryDx=0;entryDy=0;entryPerimeter=0;" parent="1" source="nMG1q2g8icrtDRCT-Ovj-10" target="nMG1q2g8icrtDRCT-Ovj-18" edge="1">
                    <mxGeometry relative="1" as="geometry"/>
                </mxCell>
                <mxCell id="nMG1q2g8icrtDRCT-Ovj-7" style="edgeStyle=none;html=1;entryX=1;entryY=0.5;entryDx=0;entryDy=0;exitX=0;exitY=0;exitDx=0;exitDy=0;" parent="1" source="nMG1q2g8icrtDRCT-Ovj-10" target="nMG1q2g8icrtDRCT-Ovj-19" edge="1">
                    <mxGeometry relative="1" as="geometry">
                        <mxPoint x="411.25" y="290" as="sourcePoint"/>
                    </mxGeometry>
                </mxCell>
                <mxCell id="nMG1q2g8icrtDRCT-Ovj-8" style="edgeStyle=none;html=1;exitX=0;exitY=0;exitDx=0;exitDy=0;entryX=0.978;entryY=0.402;entryDx=0;entryDy=0;entryPerimeter=0;" parent="1" source="nMG1q2g8icrtDRCT-Ovj-10" target="nMG1q2g8icrtDRCT-Ovj-17" edge="1">
                    <mxGeometry relative="1" as="geometry">
                        <mxPoint x="357.5" y="310" as="sourcePoint"/>
                    </mxGeometry>
                </mxCell>
                <mxCell id="nMG1q2g8icrtDRCT-Ovj-9" style="edgeStyle=none;html=1;exitX=1;exitY=0;exitDx=0;exitDy=0;entryX=0;entryY=1;entryDx=0;entryDy=0;" parent="1" source="nMG1q2g8icrtDRCT-Ovj-10" target="nMG1q2g8icrtDRCT-Ovj-16" edge="1">
                    <mxGeometry relative="1" as="geometry"/>
                </mxCell>
                <mxCell id="nMG1q2g8icrtDRCT-Ovj-10" value="FARMER" style="rounded=0;whiteSpace=wrap;html=1;" parent="1" vertex="1">
                    <mxGeometry x="412.5" y="300" width="100" height="40" as="geometry"/>
                </mxCell>
                <mxCell id="nMG1q2g8icrtDRCT-Ovj-11" value="Farmer id" style="ellipse;whiteSpace=wrap;html=1;" parent="1" vertex="1">
                    <mxGeometry x="323.75" y="110" width="60" height="40" as="geometry"/>
                </mxCell>
                <mxCell id="nMG1q2g8icrtDRCT-Ovj-12" value="Farmer Name&lt;span style=&quot;color: rgba(0, 0, 0, 0); font-family: monospace; font-size: 0px; text-align: start;&quot;&gt;%3CmxGraphModel%3E%3Croot%3E%3CmxCell%20id%3D%220%22%2F%3E%3CmxCell%20id%3D%221%22%20parent%3D%220%22%2F%3E%3CmxCell%20id%3D%222%22%20value%3D%22Farmer%20id%22%20style%3D%22ellipse%3BwhiteSpace%3Dwrap%3Bhtml%3D1%3B%22%20vertex%3D%221%22%20parent%3D%221%22%3E%3CmxGeometry%20x%3D%22250%22%20y%3D%22120%22%20width%3D%2260%22%20height%3D%2240%22%20as%3D%22geometry%22%2F%3E%3C%2FmxCell%3E%3C%2Froot%3E%3C%2FmxGraphModel%3E&lt;/span&gt;" style="ellipse;whiteSpace=wrap;html=1;" parent="1" vertex="1">
                    <mxGeometry x="401.25" y="110" width="60" height="40" as="geometry"/>
                </mxCell>
                <mxCell id="nMG1q2g8icrtDRCT-Ovj-13" value="Contact Number" style="ellipse;whiteSpace=wrap;html=1;" parent="1" vertex="1">
                    <mxGeometry x="471.25" y="110" width="60" height="40" as="geometry"/>
                </mxCell>
                <mxCell id="nMG1q2g8icrtDRCT-Ovj-14" value="Email" style="ellipse;whiteSpace=wrap;html=1;" parent="1" vertex="1">
                    <mxGeometry x="536.25" y="120" width="60" height="40" as="geometry"/>
                </mxCell>
                <mxCell id="nMG1q2g8icrtDRCT-Ovj-15" value="Address" style="ellipse;whiteSpace=wrap;html=1;" parent="1" vertex="1">
                    <mxGeometry x="601.25" y="140" width="60" height="40" as="geometry"/>
                </mxCell>
                <mxCell id="nMG1q2g8icrtDRCT-Ovj-16" value="Username" style="ellipse;whiteSpace=wrap;html=1;" parent="1" vertex="1">
                    <mxGeometry x="661.25" y="165" width="60" height="40" as="geometry"/>
                </mxCell>
                <mxCell id="nMG1q2g8icrtDRCT-Ovj-17" value="Password" style="ellipse;whiteSpace=wrap;html=1;" parent="1" vertex="1">
                    <mxGeometry x="263.75" y="260" width="60" height="40" as="geometry"/>
                </mxCell>
                <mxCell id="nMG1q2g8icrtDRCT-Ovj-18" value="Profile Img" style="ellipse;whiteSpace=wrap;html=1;" parent="1" vertex="1">
                    <mxGeometry x="263.75" y="145" width="60" height="40" as="geometry"/>
                </mxCell>
                <mxCell id="nMG1q2g8icrtDRCT-Ovj-19" value="Farmer card no" style="ellipse;whiteSpace=wrap;html=1;" parent="1" vertex="1">
                    <mxGeometry x="263.75" y="205" width="60" height="40" as="geometry"/>
                </mxCell>
                <mxCell id="nMG1q2g8icrtDRCT-Ovj-20" value="Uploads" style="rhombus;whiteSpace=wrap;html=1;" parent="1" vertex="1">
                    <mxGeometry x="425" y="470" width="70" height="70" as="geometry"/>
                </mxCell>
                <mxCell id="nMG1q2g8icrtDRCT-Ovj-21" value="" style="endArrow=none;html=1;exitX=0.5;exitY=0;exitDx=0;exitDy=0;entryX=0.5;entryY=1;entryDx=0;entryDy=0;" parent="1" source="nMG1q2g8icrtDRCT-Ovj-20" target="nMG1q2g8icrtDRCT-Ovj-10" edge="1">
                    <mxGeometry width="50" height="50" relative="1" as="geometry">
                        <mxPoint x="521.25" y="390" as="sourcePoint"/>
                        <mxPoint x="571.25" y="340" as="targetPoint"/>
                    </mxGeometry>
                </mxCell>
                <mxCell id="nMG1q2g8icrtDRCT-Ovj-22" value="" style="endArrow=none;html=1;entryX=0.5;entryY=1;entryDx=0;entryDy=0;exitX=0.5;exitY=0;exitDx=0;exitDy=0;" parent="1" source="nMG1q2g8icrtDRCT-Ovj-30" target="nMG1q2g8icrtDRCT-Ovj-20" edge="1">
                    <mxGeometry width="50" height="50" relative="1" as="geometry">
                        <mxPoint x="571.25" y="615" as="sourcePoint"/>
                        <mxPoint x="571.25" y="580" as="targetPoint"/>
                    </mxGeometry>
                </mxCell>
                <mxCell id="nMG1q2g8icrtDRCT-Ovj-23" style="edgeStyle=none;html=1;exitX=0;exitY=0.5;exitDx=0;exitDy=0;entryX=1;entryY=0.5;entryDx=0;entryDy=0;" parent="1" source="nMG1q2g8icrtDRCT-Ovj-30" target="nMG1q2g8icrtDRCT-Ovj-36" edge="1">
                    <mxGeometry relative="1" as="geometry"/>
                </mxCell>
                <mxCell id="nMG1q2g8icrtDRCT-Ovj-24" style="edgeStyle=none;html=1;exitX=0;exitY=0.25;exitDx=0;exitDy=0;entryX=0.991;entryY=0.596;entryDx=0;entryDy=0;entryPerimeter=0;" parent="1" source="nMG1q2g8icrtDRCT-Ovj-30" target="nMG1q2g8icrtDRCT-Ovj-31" edge="1">
                    <mxGeometry relative="1" as="geometry"/>
                </mxCell>
                <mxCell id="nMG1q2g8icrtDRCT-Ovj-25" style="edgeStyle=none;html=1;exitX=0;exitY=0.75;exitDx=0;exitDy=0;" parent="1" source="nMG1q2g8icrtDRCT-Ovj-30" target="nMG1q2g8icrtDRCT-Ovj-32" edge="1">
                    <mxGeometry relative="1" as="geometry"/>
                </mxCell>
                <mxCell id="nMG1q2g8icrtDRCT-Ovj-27" style="edgeStyle=none;html=1;exitX=0;exitY=0;exitDx=0;exitDy=0;entryX=1;entryY=1;entryDx=0;entryDy=0;" parent="1" source="nMG1q2g8icrtDRCT-Ovj-30" target="nMG1q2g8icrtDRCT-Ovj-33" edge="1">
                    <mxGeometry relative="1" as="geometry"/>
                </mxCell>
                <mxCell id="nMG1q2g8icrtDRCT-Ovj-28" style="edgeStyle=none;html=1;exitX=0.25;exitY=1;exitDx=0;exitDy=0;entryX=0.5;entryY=0;entryDx=0;entryDy=0;" parent="1" source="nMG1q2g8icrtDRCT-Ovj-30" target="nMG1q2g8icrtDRCT-Ovj-35" edge="1">
                    <mxGeometry relative="1" as="geometry"/>
                </mxCell>
                <mxCell id="nMG1q2g8icrtDRCT-Ovj-29" style="edgeStyle=none;html=1;exitX=0.25;exitY=0;exitDx=0;exitDy=0;entryX=0.5;entryY=1;entryDx=0;entryDy=0;" parent="1" source="nMG1q2g8icrtDRCT-Ovj-30" target="nMG1q2g8icrtDRCT-Ovj-37" edge="1">
                    <mxGeometry relative="1" as="geometry"/>
                </mxCell>
                <mxCell id="nMG1q2g8icrtDRCT-Ovj-30" value="Products" style="rounded=0;whiteSpace=wrap;html=1;" parent="1" vertex="1">
                    <mxGeometry x="412.5" y="800" width="95" height="40" as="geometry"/>
                </mxCell>
                <mxCell id="nMG1q2g8icrtDRCT-Ovj-31" value="Producats&amp;nbsp;&lt;br&gt;ID" style="ellipse;whiteSpace=wrap;html=1;" parent="1" vertex="1">
                    <mxGeometry x="270" y="755" width="70" height="45" as="geometry"/>
                </mxCell>
                <mxCell id="nMG1q2g8icrtDRCT-Ovj-32" value="&lt;br&gt;&lt;span style=&quot;color: rgb(240, 240, 240); font-family: Helvetica; font-size: 12px; font-style: normal; font-variant-ligatures: normal; font-variant-caps: normal; font-weight: 400; letter-spacing: normal; orphans: 2; text-align: center; text-indent: 0px; text-transform: none; widows: 2; word-spacing: 0px; -webkit-text-stroke-width: 0px; background-color: rgb(42, 37, 47); text-decoration-thickness: initial; text-decoration-style: initial; text-decoration-color: initial; float: none; display: inline !important;&quot;&gt;Producats&lt;span&gt;&amp;nbsp;&lt;/span&gt;&lt;/span&gt;&lt;br&gt;name" style="ellipse;whiteSpace=wrap;html=1;" parent="1" vertex="1">
                    <mxGeometry x="240" y="850" width="70" height="50" as="geometry"/>
                </mxCell>
                <mxCell id="nMG1q2g8icrtDRCT-Ovj-33" value="Producats Details" style="ellipse;whiteSpace=wrap;html=1;" parent="1" vertex="1">
                    <mxGeometry x="300" y="695" width="70" height="52.5" as="geometry"/>
                </mxCell>
                <mxCell id="nMG1q2g8icrtDRCT-Ovj-35" value="Price" style="ellipse;whiteSpace=wrap;html=1;" parent="1" vertex="1">
                    <mxGeometry x="305" y="900" width="60" height="40" as="geometry"/>
                </mxCell>
                <mxCell id="nMG1q2g8icrtDRCT-Ovj-36" value="Farmer ID" style="ellipse;whiteSpace=wrap;html=1;" parent="1" vertex="1">
                    <mxGeometry x="240" y="800" width="60" height="40" as="geometry"/>
                </mxCell>
                <mxCell id="nMG1q2g8icrtDRCT-Ovj-37" value="Date Posted" style="ellipse;whiteSpace=wrap;html=1;" parent="1" vertex="1">
                    <mxGeometry x="380" y="707.5" width="60" height="40" as="geometry"/>
                </mxCell>
                <mxCell id="nMG1q2g8icrtDRCT-Ovj-38" style="edgeStyle=none;html=1;exitX=1;exitY=0;exitDx=0;exitDy=0;entryX=0;entryY=0.5;entryDx=0;entryDy=0;" parent="1" source="nMG1q2g8icrtDRCT-Ovj-45" target="nMG1q2g8icrtDRCT-Ovj-46" edge="1">
                    <mxGeometry relative="1" as="geometry"/>
                </mxCell>
                <mxCell id="nMG1q2g8icrtDRCT-Ovj-39" style="edgeStyle=none;html=1;exitX=1;exitY=1;exitDx=0;exitDy=0;entryX=0;entryY=0.5;entryDx=0;entryDy=0;" parent="1" source="nMG1q2g8icrtDRCT-Ovj-45" target="nMG1q2g8icrtDRCT-Ovj-52" edge="1">
                    <mxGeometry relative="1" as="geometry"/>
                </mxCell>
                <mxCell id="nMG1q2g8icrtDRCT-Ovj-40" style="edgeStyle=none;html=1;exitX=1;exitY=1;exitDx=0;exitDy=0;entryX=0;entryY=0.5;entryDx=0;entryDy=0;" parent="1" source="nMG1q2g8icrtDRCT-Ovj-45" target="nMG1q2g8icrtDRCT-Ovj-50" edge="1">
                    <mxGeometry relative="1" as="geometry"/>
                </mxCell>
                <mxCell id="nMG1q2g8icrtDRCT-Ovj-41" style="edgeStyle=none;html=1;exitX=1;exitY=0;exitDx=0;exitDy=0;entryX=0;entryY=0.5;entryDx=0;entryDy=0;" parent="1" source="nMG1q2g8icrtDRCT-Ovj-45" target="nMG1q2g8icrtDRCT-Ovj-51" edge="1">
                    <mxGeometry relative="1" as="geometry"/>
                </mxCell>
                <mxCell id="nMG1q2g8icrtDRCT-Ovj-42" style="edgeStyle=none;html=1;exitX=1;exitY=0.25;exitDx=0;exitDy=0;entryX=0;entryY=0.5;entryDx=0;entryDy=0;" parent="1" source="nMG1q2g8icrtDRCT-Ovj-45" target="nMG1q2g8icrtDRCT-Ovj-47" edge="1">
                    <mxGeometry relative="1" as="geometry"/>
                </mxCell>
                <mxCell id="nMG1q2g8icrtDRCT-Ovj-43" style="edgeStyle=none;html=1;exitX=1;exitY=0.75;exitDx=0;exitDy=0;entryX=0;entryY=0.5;entryDx=0;entryDy=0;" parent="1" source="nMG1q2g8icrtDRCT-Ovj-45" target="nMG1q2g8icrtDRCT-Ovj-49" edge="1">
                    <mxGeometry relative="1" as="geometry"/>
                </mxCell>
                <mxCell id="nMG1q2g8icrtDRCT-Ovj-44" style="edgeStyle=none;html=1;exitX=1;exitY=0.5;exitDx=0;exitDy=0;entryX=0;entryY=0.5;entryDx=0;entryDy=0;" parent="1" source="nMG1q2g8icrtDRCT-Ovj-45" target="nMG1q2g8icrtDRCT-Ovj-48" edge="1">
                    <mxGeometry relative="1" as="geometry"/>
                </mxCell>
                <mxCell id="nMG1q2g8icrtDRCT-Ovj-45" value="CUSTOMER" style="rounded=0;whiteSpace=wrap;html=1;" parent="1" vertex="1">
                    <mxGeometry x="1341.25" y="537.5" width="120" height="45" as="geometry"/>
                </mxCell>
                <mxCell id="nMG1q2g8icrtDRCT-Ovj-46" value="Customer id" style="ellipse;whiteSpace=wrap;html=1;" parent="1" vertex="1">
                    <mxGeometry x="1501.25" y="331.25" width="70" height="50" as="geometry"/>
                </mxCell>
                <mxCell id="nMG1q2g8icrtDRCT-Ovj-47" value="Customer name" style="ellipse;whiteSpace=wrap;html=1;" parent="1" vertex="1">
                    <mxGeometry x="1501.25" y="468.75" width="70" height="50" as="geometry"/>
                </mxCell>
                <mxCell id="nMG1q2g8icrtDRCT-Ovj-48" value="Contact Number" style="ellipse;whiteSpace=wrap;html=1;" parent="1" vertex="1">
                    <mxGeometry x="1501.25" y="533.75" width="70" height="50" as="geometry"/>
                </mxCell>
                <mxCell id="nMG1q2g8icrtDRCT-Ovj-49" value="Email" style="ellipse;whiteSpace=wrap;html=1;" parent="1" vertex="1">
                    <mxGeometry x="1501.25" y="601.25" width="70" height="50" as="geometry"/>
                </mxCell>
                <mxCell id="nMG1q2g8icrtDRCT-Ovj-50" value="Location/&lt;br&gt;Address" style="ellipse;whiteSpace=wrap;html=1;" parent="1" vertex="1">
                    <mxGeometry x="1501.25" y="668.75" width="70" height="50" as="geometry"/>
                </mxCell>
                <mxCell id="nMG1q2g8icrtDRCT-Ovj-51" value="Username" style="ellipse;whiteSpace=wrap;html=1;" parent="1" vertex="1">
                    <mxGeometry x="1501.25" y="391.25" width="70" height="50" as="geometry"/>
                </mxCell>
                <mxCell id="nMG1q2g8icrtDRCT-Ovj-52" value="Password" style="ellipse;whiteSpace=wrap;html=1;" parent="1" vertex="1">
                    <mxGeometry x="1501.25" y="738.75" width="70" height="50" as="geometry"/>
                </mxCell>
                <mxCell id="nMG1q2g8icrtDRCT-Ovj-53" value="Check / search" style="rhombus;whiteSpace=wrap;html=1;" parent="1" vertex="1">
                    <mxGeometry x="820" y="785" width="60" height="65" as="geometry"/>
                </mxCell>
                <mxCell id="nMG1q2g8icrtDRCT-Ovj-54" value="" style="endArrow=none;html=1;entryX=0;entryY=0.5;entryDx=0;entryDy=0;exitX=1;exitY=0.5;exitDx=0;exitDy=0;" parent="1" source="nMG1q2g8icrtDRCT-Ovj-30" target="nMG1q2g8icrtDRCT-Ovj-53" edge="1">
                    <mxGeometry width="50" height="50" relative="1" as="geometry">
                        <mxPoint x="661.25" y="935" as="sourcePoint"/>
                        <mxPoint x="711.25" y="885" as="targetPoint"/>
                    </mxGeometry>
                </mxCell>
                <mxCell id="nMG1q2g8icrtDRCT-Ovj-55" style="edgeStyle=none;html=1;exitX=1;exitY=0;exitDx=0;exitDy=0;entryX=0;entryY=0.5;entryDx=0;entryDy=0;" parent="1" source="nMG1q2g8icrtDRCT-Ovj-60" target="nMG1q2g8icrtDRCT-Ovj-61" edge="1">
                    <mxGeometry relative="1" as="geometry"/>
                </mxCell>
                <mxCell id="nMG1q2g8icrtDRCT-Ovj-56" style="edgeStyle=none;html=1;exitX=1;exitY=0.5;exitDx=0;exitDy=0;entryX=0;entryY=0.637;entryDx=0;entryDy=0;entryPerimeter=0;" parent="1" source="nMG1q2g8icrtDRCT-Ovj-60" target="nMG1q2g8icrtDRCT-Ovj-62" edge="1">
                    <mxGeometry relative="1" as="geometry"/>
                </mxCell>
                <mxCell id="nMG1q2g8icrtDRCT-Ovj-57" style="edgeStyle=none;html=1;exitX=1;exitY=0.5;exitDx=0;exitDy=0;entryX=0;entryY=0.5;entryDx=0;entryDy=0;" parent="1" source="nMG1q2g8icrtDRCT-Ovj-60" target="nMG1q2g8icrtDRCT-Ovj-63" edge="1">
                    <mxGeometry relative="1" as="geometry"/>
                </mxCell>
                <mxCell id="nMG1q2g8icrtDRCT-Ovj-58" style="edgeStyle=none;html=1;entryX=0;entryY=0.4;entryDx=0;entryDy=0;entryPerimeter=0;" parent="1" target="nMG1q2g8icrtDRCT-Ovj-64" edge="1">
                    <mxGeometry relative="1" as="geometry">
                        <mxPoint x="1181.2499999999995" y="325" as="sourcePoint"/>
                    </mxGeometry>
                </mxCell>
                <mxCell id="nMG1q2g8icrtDRCT-Ovj-59" style="edgeStyle=none;html=1;exitX=1;exitY=1;exitDx=0;exitDy=0;entryX=0;entryY=0.4;entryDx=0;entryDy=0;entryPerimeter=0;" parent="1" source="nMG1q2g8icrtDRCT-Ovj-60" target="nMG1q2g8icrtDRCT-Ovj-65" edge="1">
                    <mxGeometry relative="1" as="geometry"/>
                </mxCell>
                <mxCell id="nMG1q2g8icrtDRCT-Ovj-60" value="Message" style="rounded=0;whiteSpace=wrap;html=1;" parent="1" vertex="1">
                    <mxGeometry x="1091.25" y="300" width="100" height="40" as="geometry"/>
                </mxCell>
                <mxCell id="nMG1q2g8icrtDRCT-Ovj-61" value="Message Id" style="ellipse;whiteSpace=wrap;html=1;" parent="1" vertex="1">
                    <mxGeometry x="1261.25" y="165" width="70" height="50" as="geometry"/>
                </mxCell>
                <mxCell id="nMG1q2g8icrtDRCT-Ovj-62" value="Customer Id" style="ellipse;whiteSpace=wrap;html=1;" parent="1" vertex="1">
                    <mxGeometry x="1261.25" y="225" width="70" height="50" as="geometry"/>
                </mxCell>
                <mxCell id="nMG1q2g8icrtDRCT-Ovj-63" value="Farmer Id" style="ellipse;whiteSpace=wrap;html=1;" parent="1" vertex="1">
                    <mxGeometry x="1261.25" y="285" width="70" height="50" as="geometry"/>
                </mxCell>
                <mxCell id="nMG1q2g8icrtDRCT-Ovj-64" value="Messages" style="ellipse;whiteSpace=wrap;html=1;" parent="1" vertex="1">
                    <mxGeometry x="1261.25" y="345" width="70" height="50" as="geometry"/>
                </mxCell>
                <mxCell id="nMG1q2g8icrtDRCT-Ovj-65" value="Message timestamp" style="ellipse;whiteSpace=wrap;html=1;" parent="1" vertex="1">
                    <mxGeometry x="1261.25" y="405" width="70" height="50" as="geometry"/>
                </mxCell>
                <mxCell id="nMG1q2g8icrtDRCT-Ovj-66" value="Sends" style="rhombus;whiteSpace=wrap;html=1;" parent="1" vertex="1">
                    <mxGeometry x="1096.25" y="395" width="70" height="67.5" as="geometry"/>
                </mxCell>
                <mxCell id="nMG1q2g8icrtDRCT-Ovj-67" value="" style="endArrow=none;html=1;exitX=0.5;exitY=0;exitDx=0;exitDy=0;entryX=0.39;entryY=1;entryDx=0;entryDy=0;entryPerimeter=0;" parent="1" source="nMG1q2g8icrtDRCT-Ovj-66" target="nMG1q2g8icrtDRCT-Ovj-60" edge="1">
                    <mxGeometry width="50" height="50" relative="1" as="geometry">
                        <mxPoint x="1146.25" y="470" as="sourcePoint"/>
                        <mxPoint x="1121.25" y="345" as="targetPoint"/>
                    </mxGeometry>
                </mxCell>
                <mxCell id="nMG1q2g8icrtDRCT-Ovj-68" value="Responses" style="rhombus;whiteSpace=wrap;html=1;" parent="1" vertex="1">
                    <mxGeometry x="761.25" y="285" width="70" height="70" as="geometry"/>
                </mxCell>
                <mxCell id="nMG1q2g8icrtDRCT-Ovj-69" value="" style="endArrow=none;html=1;exitX=1;exitY=0.5;exitDx=0;exitDy=0;entryX=0;entryY=0.5;entryDx=0;entryDy=0;" parent="1" source="nMG1q2g8icrtDRCT-Ovj-68" target="nMG1q2g8icrtDRCT-Ovj-60" edge="1">
                    <mxGeometry width="50" height="50" relative="1" as="geometry">
                        <mxPoint x="891.25" y="375" as="sourcePoint"/>
                        <mxPoint x="921.25" y="320" as="targetPoint"/>
                    </mxGeometry>
                </mxCell>
                <mxCell id="nMG1q2g8icrtDRCT-Ovj-70" value="" style="endArrow=none;html=1;entryX=0;entryY=0.5;entryDx=0;entryDy=0;exitX=1;exitY=0.5;exitDx=0;exitDy=0;" parent="1" source="nMG1q2g8icrtDRCT-Ovj-10" target="nMG1q2g8icrtDRCT-Ovj-68" edge="1">
                    <mxGeometry width="50" height="50" relative="1" as="geometry">
                        <mxPoint x="701.25" y="370" as="sourcePoint"/>
                        <mxPoint x="751.25" y="320" as="targetPoint"/>
                    </mxGeometry>
                </mxCell>
                <mxCell id="nMG1q2g8icrtDRCT-Ovj-71" value="update" style="rhombus;whiteSpace=wrap;html=1;" parent="1" vertex="1">
                    <mxGeometry x="551.25" y="400" width="60" height="60" as="geometry"/>
                </mxCell>
                <mxCell id="nMG1q2g8icrtDRCT-Ovj-72" value="update" style="rhombus;whiteSpace=wrap;html=1;" parent="1" vertex="1">
                    <mxGeometry x="990" y="530" width="60" height="60" as="geometry"/>
                </mxCell>
                <mxCell id="nMG1q2g8icrtDRCT-Ovj-73" value="" style="endArrow=none;html=1;exitX=0;exitY=0;exitDx=0;exitDy=0;entryX=0.75;entryY=1;entryDx=0;entryDy=0;" parent="1" source="nMG1q2g8icrtDRCT-Ovj-71" target="nMG1q2g8icrtDRCT-Ovj-10" edge="1">
                    <mxGeometry width="50" height="50" relative="1" as="geometry">
                        <mxPoint x="571.25" y="390" as="sourcePoint"/>
                        <mxPoint x="621.25" y="340" as="targetPoint"/>
                    </mxGeometry>
                </mxCell>
                <mxCell id="nMG1q2g8icrtDRCT-Ovj-74" style="edgeStyle=none;html=1;exitX=0;exitY=0.5;exitDx=0;exitDy=0;entryX=1;entryY=0.5;entryDx=0;entryDy=0;" parent="1" source="nMG1q2g8icrtDRCT-Ovj-78" target="nMG1q2g8icrtDRCT-Ovj-80" edge="1">
                    <mxGeometry relative="1" as="geometry"/>
                </mxCell>
                <mxCell id="nMG1q2g8icrtDRCT-Ovj-75" style="edgeStyle=none;html=1;exitX=0;exitY=1;exitDx=0;exitDy=0;entryX=1;entryY=0.5;entryDx=0;entryDy=0;" parent="1" source="nMG1q2g8icrtDRCT-Ovj-78" target="nMG1q2g8icrtDRCT-Ovj-81" edge="1">
                    <mxGeometry relative="1" as="geometry"/>
                </mxCell>
                <mxCell id="nMG1q2g8icrtDRCT-Ovj-76" style="edgeStyle=none;html=1;exitX=1;exitY=0;exitDx=0;exitDy=0;entryX=0;entryY=0.5;entryDx=0;entryDy=0;" parent="1" source="nMG1q2g8icrtDRCT-Ovj-78" target="nMG1q2g8icrtDRCT-Ovj-83" edge="1">
                    <mxGeometry relative="1" as="geometry"/>
                </mxCell>
                <mxCell id="nMG1q2g8icrtDRCT-Ovj-77" style="edgeStyle=none;html=1;exitX=0.644;exitY=-0.023;exitDx=0;exitDy=0;entryX=0;entryY=0.5;entryDx=0;entryDy=0;exitPerimeter=0;" parent="1" source="nMG1q2g8icrtDRCT-Ovj-78" target="nMG1q2g8icrtDRCT-Ovj-82" edge="1">
                    <mxGeometry relative="1" as="geometry"/>
                </mxCell>
                <mxCell id="nMG1q2g8icrtDRCT-Ovj-78" value="Profile" style="rounded=0;whiteSpace=wrap;html=1;" parent="1" vertex="1">
                    <mxGeometry x="716.25" y="540" width="95" height="40" as="geometry"/>
                </mxCell>
                <mxCell id="nMG1q2g8icrtDRCT-Ovj-79" value="" style="endArrow=none;html=1;entryX=1;entryY=1;entryDx=0;entryDy=0;exitX=0.5;exitY=0;exitDx=0;exitDy=0;" parent="1" source="nMG1q2g8icrtDRCT-Ovj-78" target="nMG1q2g8icrtDRCT-Ovj-71" edge="1">
                    <mxGeometry width="50" height="50" relative="1" as="geometry">
                        <mxPoint x="651.25" y="530" as="sourcePoint"/>
                        <mxPoint x="701.25" y="480" as="targetPoint"/>
                    </mxGeometry>
                </mxCell>
                <mxCell id="nMG1q2g8icrtDRCT-Ovj-80" value="Name" style="ellipse;whiteSpace=wrap;html=1;" parent="1" vertex="1">
                    <mxGeometry x="601.25" y="550" width="60" height="40" as="geometry"/>
                </mxCell>
                <mxCell id="nMG1q2g8icrtDRCT-Ovj-81" value="Email" style="ellipse;whiteSpace=wrap;html=1;" parent="1" vertex="1">
                    <mxGeometry x="601.25" y="600" width="60" height="40" as="geometry"/>
                </mxCell>
                <mxCell id="nMG1q2g8icrtDRCT-Ovj-82" value="contact" style="ellipse;whiteSpace=wrap;html=1;" parent="1" vertex="1">
                    <mxGeometry x="790" y="441.25" width="60" height="40" as="geometry"/>
                </mxCell>
                <mxCell id="nMG1q2g8icrtDRCT-Ovj-83" value="Password" style="ellipse;whiteSpace=wrap;html=1;" parent="1" vertex="1">
                    <mxGeometry x="880" y="440" width="60" height="40" as="geometry"/>
                </mxCell>
                <mxCell id="nMG1q2g8icrtDRCT-Ovj-84" value="" style="endArrow=none;html=1;entryX=0;entryY=0;entryDx=0;entryDy=0;exitX=0.5;exitY=1;exitDx=0;exitDy=0;" parent="1" source="nMG1q2g8icrtDRCT-Ovj-66" target="nMG1q2g8icrtDRCT-Ovj-45" edge="1">
                    <mxGeometry width="50" height="50" relative="1" as="geometry">
                        <mxPoint x="1200" y="610" as="sourcePoint"/>
                        <mxPoint x="1250" y="560" as="targetPoint"/>
                    </mxGeometry>
                </mxCell>
                <mxCell id="nMG1q2g8icrtDRCT-Ovj-85" value="" style="endArrow=none;html=1;entryX=0;entryY=0.5;entryDx=0;entryDy=0;exitX=1;exitY=0.5;exitDx=0;exitDy=0;" parent="1" source="nMG1q2g8icrtDRCT-Ovj-78" target="nMG1q2g8icrtDRCT-Ovj-72" edge="1">
                    <mxGeometry width="50" height="50" relative="1" as="geometry">
                        <mxPoint x="930" y="610" as="sourcePoint"/>
                        <mxPoint x="980" y="560" as="targetPoint"/>
                    </mxGeometry>
                </mxCell>
                <mxCell id="nMG1q2g8icrtDRCT-Ovj-86" value="" style="endArrow=none;html=1;exitX=1;exitY=0.5;exitDx=0;exitDy=0;" parent="1" source="nMG1q2g8icrtDRCT-Ovj-72" edge="1">
                    <mxGeometry width="50" height="50" relative="1" as="geometry">
                        <mxPoint x="1240" y="600" as="sourcePoint"/>
                        <mxPoint x="1339.9999999999995" y="560" as="targetPoint"/>
                    </mxGeometry>
                </mxCell>
                <mxCell id="nMG1q2g8icrtDRCT-Ovj-87" value="" style="endArrow=none;html=1;entryX=0;entryY=0.75;entryDx=0;entryDy=0;exitX=1;exitY=0.5;exitDx=0;exitDy=0;" parent="1" source="nMG1q2g8icrtDRCT-Ovj-53" target="nMG1q2g8icrtDRCT-Ovj-45" edge="1">
                    <mxGeometry width="50" height="50" relative="1" as="geometry">
                        <mxPoint x="880.0000000000002" y="817.5" as="sourcePoint"/>
                        <mxPoint x="1091.25" y="712.5" as="targetPoint"/>
                    </mxGeometry>
                </mxCell>
                <mxCell id="nMG1q2g8icrtDRCT-Ovj-88" value="Search" style="rhombus;whiteSpace=wrap;html=1;" parent="1" vertex="1">
                    <mxGeometry x="1371.25" y="690" width="60" height="65" as="geometry"/>
                </mxCell>
                <mxCell id="nMG1q2g8icrtDRCT-Ovj-89" value="" style="endArrow=none;html=1;exitX=0.5;exitY=0;exitDx=0;exitDy=0;entryX=0.5;entryY=1;entryDx=0;entryDy=0;" parent="1" source="nMG1q2g8icrtDRCT-Ovj-88" target="nMG1q2g8icrtDRCT-Ovj-45" edge="1">
                    <mxGeometry width="50" height="50" relative="1" as="geometry">
                        <mxPoint x="1350" y="640" as="sourcePoint"/>
                        <mxPoint x="1400" y="590" as="targetPoint"/>
                    </mxGeometry>
                </mxCell>
                <mxCell id="nMG1q2g8icrtDRCT-Ovj-90" style="edgeStyle=none;html=1;exitX=0.5;exitY=1;exitDx=0;exitDy=0;entryX=0.5;entryY=0;entryDx=0;entryDy=0;" parent="1" source="nMG1q2g8icrtDRCT-Ovj-91" target="nMG1q2g8icrtDRCT-Ovj-93" edge="1">
                    <mxGeometry relative="1" as="geometry"/>
                </mxCell>
                <mxCell id="nMG1q2g8icrtDRCT-Ovj-91" value="Farmer" style="rounded=0;whiteSpace=wrap;html=1;" parent="1" vertex="1">
                    <mxGeometry x="1341.25" y="830" width="120" height="45" as="geometry"/>
                </mxCell>
                <mxCell id="nMG1q2g8icrtDRCT-Ovj-92" value="" style="endArrow=none;html=1;entryX=0.5;entryY=1;entryDx=0;entryDy=0;exitX=0.5;exitY=0;exitDx=0;exitDy=0;" parent="1" source="nMG1q2g8icrtDRCT-Ovj-91" target="nMG1q2g8icrtDRCT-Ovj-88" edge="1">
                    <mxGeometry width="50" height="50" relative="1" as="geometry">
                        <mxPoint x="1350" y="810" as="sourcePoint"/>
                        <mxPoint x="1400" y="760" as="targetPoint"/>
                    </mxGeometry>
                </mxCell>
                <mxCell id="nMG1q2g8icrtDRCT-Ovj-93" value="Farmer name" style="ellipse;whiteSpace=wrap;html=1;" parent="1" vertex="1">
                    <mxGeometry x="1366.25" y="930" width="70" height="50" as="geometry"/>
                </mxCell>
                <mxCell id="_knByMiym3G5XRN54XB7-1" value="1" style="text;html=1;align=center;verticalAlign=middle;resizable=0;points=[];autosize=1;strokeColor=none;fillColor=none;" parent="1" vertex="1">
                    <mxGeometry x="425" y="345" width="30" height="30" as="geometry"/>
                </mxCell>
                <mxCell id="_knByMiym3G5XRN54XB7-2" value="M" style="text;html=1;align=center;verticalAlign=middle;resizable=0;points=[];autosize=1;strokeColor=none;fillColor=none;" parent="1" vertex="1">
                    <mxGeometry x="465" y="770" width="30" height="30" as="geometry"/>
                </mxCell>
                <mxCell id="_knByMiym3G5XRN54XB7-3" value="1" style="text;html=1;align=center;verticalAlign=middle;resizable=0;points=[];autosize=1;strokeColor=none;fillColor=none;" parent="1" vertex="1">
                    <mxGeometry x="1331.25" y="510" width="30" height="30" as="geometry"/>
                </mxCell>
                <mxCell id="_knByMiym3G5XRN54XB7-4" value="M" style="text;html=1;align=center;verticalAlign=middle;resizable=0;points=[];autosize=1;strokeColor=none;fillColor=none;" parent="1" vertex="1">
                    <mxGeometry x="1136.25" y="341.25" width="30" height="30" as="geometry"/>
                </mxCell>
                <mxCell id="_knByMiym3G5XRN54XB7-6" value="M" style="text;html=1;align=center;verticalAlign=middle;resizable=0;points=[];autosize=1;strokeColor=none;fillColor=none;" parent="1" vertex="1">
                    <mxGeometry x="506.25" y="820" width="30" height="30" as="geometry"/>
                </mxCell>
                <mxCell id="_knByMiym3G5XRN54XB7-7" value="1" style="text;html=1;align=center;verticalAlign=middle;resizable=0;points=[];autosize=1;strokeColor=none;fillColor=none;" parent="1" vertex="1">
                    <mxGeometry x="1311.25" y="583.75" width="30" height="30" as="geometry"/>
                </mxCell>
            </root>
        </mxGraphModel>
    </diagram>
    <diagram id="L_dkR30a1mHwQ3fMGx-3" name="Class Digram">
        <mxGraphModel dx="836" dy="467" grid="1" gridSize="10" guides="1" tooltips="1" connect="1" arrows="1" fold="1" page="1" pageScale="1" pageWidth="850" pageHeight="1100" background="none" math="0" shadow="0">
            <root>
                <mxCell id="0"/>
                <mxCell id="1" parent="0"/>
                <mxCell id="Pbsi73axzzoR3277zx-j-1" value="FARMER" style="swimlane;whiteSpace=wrap;html=1;startSize=30;" parent="1" vertex="1">
                    <mxGeometry x="40" y="130" width="130" height="210" as="geometry"/>
                </mxCell>
                <mxCell id="Pbsi73axzzoR3277zx-j-8" value="&lt;div style=&quot;text-align: left;&quot;&gt;&lt;span style=&quot;background-color: initial;&quot;&gt;+ Name&lt;/span&gt;&lt;/div&gt;&lt;div style=&quot;text-align: left;&quot;&gt;&lt;span style=&quot;background-color: initial;&quot;&gt;-&amp;nbsp; address&lt;/span&gt;&lt;/div&gt;&lt;div style=&quot;text-align: left;&quot;&gt;-&amp;nbsp; contact&lt;/div&gt;&lt;div style=&quot;text-align: left;&quot;&gt;+ email&lt;/div&gt;&lt;div style=&quot;text-align: left;&quot;&gt;+ Username&lt;/div&gt;&lt;div style=&quot;text-align: left;&quot;&gt;-&amp;nbsp; Password&lt;/div&gt;&lt;div style=&quot;text-align: left;&quot;&gt;-&amp;nbsp; Farmer id&lt;/div&gt;" style="text;html=1;align=center;verticalAlign=middle;resizable=0;points=[];autosize=1;strokeColor=none;fillColor=none;" parent="Pbsi73axzzoR3277zx-j-1" vertex="1">
                    <mxGeometry y="30" width="90" height="110" as="geometry"/>
                </mxCell>
                <mxCell id="Pbsi73axzzoR3277zx-j-4" value="" style="endArrow=none;html=1;" parent="Pbsi73axzzoR3277zx-j-1" edge="1">
                    <mxGeometry width="50" height="50" relative="1" as="geometry">
                        <mxPoint y="140" as="sourcePoint"/>
                        <mxPoint x="130" y="140" as="targetPoint"/>
                    </mxGeometry>
                </mxCell>
                <mxCell id="gkna0z9AFYPC0aFkeV_d-1" value="&lt;div style=&quot;text-align: left;&quot;&gt;&lt;span style=&quot;background-color: initial;&quot;&gt;+addFarmer()&lt;/span&gt;&lt;/div&gt;&lt;div style=&quot;text-align: left;&quot;&gt;&lt;span style=&quot;background-color: initial;&quot;&gt;+removeFarmer()&lt;/span&gt;&lt;/div&gt;&lt;div style=&quot;text-align: left;&quot;&gt;&lt;span style=&quot;background-color: initial;&quot;&gt;+getFarmer()&lt;/span&gt;&lt;/div&gt;&lt;div style=&quot;text-align: left;&quot;&gt;&lt;span style=&quot;background-color: initial;&quot;&gt;+getAllFarmer()&lt;/span&gt;&lt;/div&gt;" style="text;html=1;align=center;verticalAlign=middle;resizable=0;points=[];autosize=1;strokeColor=none;fillColor=none;" parent="Pbsi73axzzoR3277zx-j-1" vertex="1">
                    <mxGeometry y="140" width="120" height="70" as="geometry"/>
                </mxCell>
                <mxCell id="gkna0z9AFYPC0aFkeV_d-2" value="Customer" style="swimlane;whiteSpace=wrap;html=1;startSize=30;" parent="1" vertex="1">
                    <mxGeometry x="655" y="120" width="130" height="210" as="geometry"/>
                </mxCell>
                <mxCell id="gkna0z9AFYPC0aFkeV_d-3" value="&lt;div style=&quot;text-align: left;&quot;&gt;&lt;span style=&quot;background-color: initial;&quot;&gt;+ Name&lt;/span&gt;&lt;/div&gt;&lt;div style=&quot;text-align: left;&quot;&gt;&lt;span style=&quot;background-color: initial;&quot;&gt;-&amp;nbsp; address&lt;/span&gt;&lt;/div&gt;&lt;div style=&quot;text-align: left;&quot;&gt;-&amp;nbsp; contact&lt;/div&gt;&lt;div style=&quot;text-align: left;&quot;&gt;+ email&lt;/div&gt;&lt;div style=&quot;text-align: left;&quot;&gt;+ Username&lt;/div&gt;&lt;div style=&quot;text-align: left;&quot;&gt;-&amp;nbsp; Password&lt;/div&gt;&lt;div style=&quot;text-align: left;&quot;&gt;-&amp;nbsp; Customer Id&lt;/div&gt;" style="text;html=1;align=center;verticalAlign=middle;resizable=0;points=[];autosize=1;strokeColor=none;fillColor=none;" parent="gkna0z9AFYPC0aFkeV_d-2" vertex="1">
                    <mxGeometry y="30" width="100" height="110" as="geometry"/>
                </mxCell>
                <mxCell id="gkna0z9AFYPC0aFkeV_d-4" value="" style="endArrow=none;html=1;" parent="gkna0z9AFYPC0aFkeV_d-2" edge="1">
                    <mxGeometry width="50" height="50" relative="1" as="geometry">
                        <mxPoint y="140" as="sourcePoint"/>
                        <mxPoint x="130" y="140" as="targetPoint"/>
                    </mxGeometry>
                </mxCell>
                <mxCell id="gkna0z9AFYPC0aFkeV_d-5" value="&lt;div style=&quot;text-align: left;&quot;&gt;&lt;span style=&quot;background-color: initial;&quot;&gt;+addFarmer()&lt;/span&gt;&lt;/div&gt;&lt;div style=&quot;text-align: left;&quot;&gt;&lt;span style=&quot;background-color: initial;&quot;&gt;+removeFarmer()&lt;/span&gt;&lt;/div&gt;&lt;div style=&quot;text-align: left;&quot;&gt;&lt;span style=&quot;background-color: initial;&quot;&gt;+getFarmer()&lt;/span&gt;&lt;/div&gt;&lt;div style=&quot;text-align: left;&quot;&gt;&lt;span style=&quot;background-color: initial;&quot;&gt;+getAllFarmer()&lt;/span&gt;&lt;/div&gt;" style="text;html=1;align=center;verticalAlign=middle;resizable=0;points=[];autosize=1;strokeColor=none;fillColor=none;" parent="gkna0z9AFYPC0aFkeV_d-2" vertex="1">
                    <mxGeometry x="-5" y="140" width="120" height="70" as="geometry"/>
                </mxCell>
                <mxCell id="tDBOL7cD9IBhZcnhUejP-3" value="" style="rhombus;whiteSpace=wrap;html=1;strokeColor=none;fillColor=#FFFFFF;" parent="1" vertex="1">
                    <mxGeometry x="170" y="230" width="48" height="40" as="geometry"/>
                </mxCell>
                <mxCell id="jN0knbgBT_pWmfgOi5vH-1" value="PRODUCTS" style="swimlane;whiteSpace=wrap;html=1;startSize=30;" parent="1" vertex="1">
                    <mxGeometry x="300" y="130" width="130" height="200" as="geometry"/>
                </mxCell>
                <mxCell id="jN0knbgBT_pWmfgOi5vH-2" value="&lt;div style=&quot;text-align: left;&quot;&gt;&lt;span style=&quot;background-color: initial;&quot;&gt;+ Product Name&lt;/span&gt;&lt;/div&gt;&lt;div style=&quot;text-align: left;&quot;&gt;&lt;span style=&quot;background-color: initial;&quot;&gt;+ Product detail&lt;/span&gt;&lt;/div&gt;&lt;div style=&quot;text-align: left;&quot;&gt;+ Pricing&lt;/div&gt;&lt;div style=&quot;text-align: left;&quot;&gt;&lt;br&gt;&lt;/div&gt;" style="text;html=1;align=center;verticalAlign=middle;resizable=0;points=[];autosize=1;strokeColor=none;fillColor=none;" parent="jN0knbgBT_pWmfgOi5vH-1" vertex="1">
                    <mxGeometry y="40" width="110" height="70" as="geometry"/>
                </mxCell>
                <mxCell id="jN0knbgBT_pWmfgOi5vH-3" value="" style="endArrow=none;html=1;" parent="jN0knbgBT_pWmfgOi5vH-1" edge="1">
                    <mxGeometry width="50" height="50" relative="1" as="geometry">
                        <mxPoint y="100" as="sourcePoint"/>
                        <mxPoint x="130" y="100" as="targetPoint"/>
                    </mxGeometry>
                </mxCell>
                <mxCell id="jN0knbgBT_pWmfgOi5vH-4" value="&lt;div style=&quot;text-align: left;&quot;&gt;&lt;span style=&quot;background-color: initial;&quot;&gt;+addProducts()&lt;/span&gt;&lt;/div&gt;&lt;div style=&quot;text-align: left;&quot;&gt;&lt;span style=&quot;background-color: initial;&quot;&gt;+removeProducts()&lt;/span&gt;&lt;/div&gt;&lt;div style=&quot;text-align: left;&quot;&gt;&lt;span style=&quot;background-color: initial;&quot;&gt;+getProducts()&lt;/span&gt;&lt;/div&gt;&lt;div style=&quot;text-align: left;&quot;&gt;&lt;span style=&quot;background-color: initial;&quot;&gt;+getAllProducts()&lt;/span&gt;&lt;/div&gt;&lt;div style=&quot;text-align: left;&quot;&gt;&lt;span style=&quot;background-color: initial;&quot;&gt;+updateProducts()&lt;/span&gt;&lt;/div&gt;" style="text;html=1;align=center;verticalAlign=middle;resizable=0;points=[];autosize=1;strokeColor=none;fillColor=none;" parent="jN0knbgBT_pWmfgOi5vH-1" vertex="1">
                    <mxGeometry y="100" width="130" height="90" as="geometry"/>
                </mxCell>
                <mxCell id="E4bPH-mzHRyagtkqi-El-3" value="" style="rhombus;whiteSpace=wrap;html=1;strokeColor=default;fillColor=none;" parent="1" vertex="1">
                    <mxGeometry x="430" y="185" width="50" height="45" as="geometry"/>
                </mxCell>
                <mxCell id="E4bPH-mzHRyagtkqi-El-4" value="1" style="text;html=1;align=center;verticalAlign=middle;resizable=0;points=[];autosize=1;strokeColor=none;fillColor=none;" parent="1" vertex="1">
                    <mxGeometry x="625" y="210" width="30" height="30" as="geometry"/>
                </mxCell>
                <mxCell id="E4bPH-mzHRyagtkqi-El-5" value="1...*" style="text;html=1;align=center;verticalAlign=middle;resizable=0;points=[];autosize=1;strokeColor=none;fillColor=none;" parent="1" vertex="1">
                    <mxGeometry x="260" y="250" width="40" height="30" as="geometry"/>
                </mxCell>
                <mxCell id="E4bPH-mzHRyagtkqi-El-6" value="1" style="text;html=1;align=center;verticalAlign=middle;resizable=0;points=[];autosize=1;strokeColor=none;fillColor=none;" parent="1" vertex="1">
                    <mxGeometry x="195" y="265" width="30" height="30" as="geometry"/>
                </mxCell>
                <mxCell id="E4bPH-mzHRyagtkqi-El-7" value="0 ...*" style="text;html=1;align=center;verticalAlign=middle;resizable=0;points=[];autosize=1;strokeColor=none;fillColor=none;" parent="1" vertex="1">
                    <mxGeometry x="430" y="235" width="50" height="30" as="geometry"/>
                </mxCell>
                <mxCell id="jb9Agwio8aPsT9sTbF1J-1" value="" style="endArrow=none;html=1;entryX=0;entryY=0.222;entryDx=0;entryDy=0;entryPerimeter=0;exitX=1;exitY=0.5;exitDx=0;exitDy=0;" parent="1" source="tDBOL7cD9IBhZcnhUejP-3" target="jN0knbgBT_pWmfgOi5vH-4" edge="1">
                    <mxGeometry width="50" height="50" relative="1" as="geometry">
                        <mxPoint x="230" y="310" as="sourcePoint"/>
                        <mxPoint x="280" y="260" as="targetPoint"/>
                    </mxGeometry>
                </mxCell>
                <mxCell id="jb9Agwio8aPsT9sTbF1J-2" value="" style="endArrow=none;html=1;entryX=-0.005;entryY=0.514;entryDx=0;entryDy=0;entryPerimeter=0;exitX=1;exitY=0.5;exitDx=0;exitDy=0;" parent="1" source="E4bPH-mzHRyagtkqi-El-3" target="gkna0z9AFYPC0aFkeV_d-3" edge="1">
                    <mxGeometry width="50" height="50" relative="1" as="geometry">
                        <mxPoint x="600" y="250" as="sourcePoint"/>
                        <mxPoint x="650" y="200" as="targetPoint"/>
                    </mxGeometry>
                </mxCell>
            </root>
        </mxGraphModel>
    </diagram>
    <diagram id="mTexxOOCSMPyXXYIBQ0N" name="Activity Digram">
        <mxGraphModel dx="836" dy="467" grid="1" gridSize="10" guides="1" tooltips="1" connect="1" arrows="1" fold="1" page="1" pageScale="1" pageWidth="850" pageHeight="1100" math="0" shadow="0">
            <root>
                <mxCell id="0"/>
                <mxCell id="1" parent="0"/>
            </root>
        </mxGraphModel>
    </diagram>
</mxfile>